# This file uses centimeters as units for non-parametric coordinates.

mtllib screwdriver2big.mtl
g default
v -2.107065 3.035622 9.688147
v 1.966436 3.118050 9.688149
v -2.107065 3.069000 -16.646021
v 1.966441 3.151424 -16.646039
v -2.042823 -1.168435 -16.653270
v 1.887824 -0.999289 -16.653288
v -2.042823 -1.201815 9.680907
v 1.887824 -1.032669 9.680907
v -1.035544 4.533349 9.688506
v -1.035544 4.566728 -16.645668
v -1.035544 -2.201984 -16.653623
v -1.035544 -2.235365 9.680547
v 0.876724 4.533349 9.688506
v 0.876724 4.566728 -16.645668
v 0.876724 -2.201984 -16.653623
v 0.876724 -2.235365 9.680547
v 3.263699 -0.326388 -16.651242
v -3.263699 -0.326388 -16.651242
v -3.263699 -0.359768 9.682929
v 3.263699 -0.359768 9.682929
v 3.263699 2.108849 -16.648180
v -3.263699 2.108849 -16.648180
v -3.263699 2.075469 9.686016
v 3.263699 2.075469 9.686016
v -2.107614 3.070336 -17.088919
v -1.035818 4.567810 -17.088553
v -1.183230 2.225321 -17.469831
v -3.263973 2.110033 -17.091050
v 0.876954 4.567784 -17.088553
v 1.001757 2.225306 -17.469831
v 1.966901 3.152706 -17.088915
v 3.263929 2.110007 -17.091050
v 1.001471 -0.449306 -17.473221
v 0.876421 -2.200557 -17.096517
v 3.263396 -0.324961 -17.094140
v 1.887219 -0.997475 -17.096150
v -1.182958 -0.449366 -17.473221
v -1.035314 -2.200669 -17.096520
v -3.263469 -0.325075 -17.094140
v -2.042364 -1.166847 -17.096158
v -3.259819 2.058780 21.243968
v -1.180997 2.175867 21.244117
v -1.031674 4.518195 21.246461
v -2.099325 3.016896 21.246096
v 0.999895 2.176066 21.244114
v 0.873469 4.518542 21.246458
v 3.260435 2.059127 21.243969
v 1.959932 3.100015 21.246096
v -2.049243 -1.224111 21.238842
v -1.038754 -2.253839 21.238495
v -1.184830 -0.500673 21.240721
v -3.266899 -0.378241 21.240876
v 1.003927 -0.501515 21.240721
v 0.880976 -2.255436 21.238495
v 3.267942 -0.379840 21.240874
v 1.896329 -1.058160 21.238842
v -2.100491 3.019717 19.505593
v -1.032257 4.520478 19.505959
v 0.873959 4.520772 19.505956
v 1.960907 3.102732 19.505597
v 3.260926 2.061588 19.503467
v 3.267303 -0.376816 19.500379
v 1.895048 -1.054321 19.498342
v 0.880336 -2.252414 19.497992
v -1.038270 -2.251056 19.497996
v -2.048277 -1.220753 19.498347
v -3.266417 -0.375459 19.500376
v -3.260403 2.061294 19.503467
v 0.781138 3.868029 10.316289
v 1.966087 3.117066 10.316778
v 2.908173 1.892368 10.314414
v 2.908537 -0.065182 10.311932
v 1.888286 -1.034055 10.309536
v 0.781502 -1.572746 10.310017
v -0.922884 -1.572675 10.310018
v -2.043173 -1.203027 10.309535
v -2.908394 -0.065113 10.311932
v -2.908051 1.892353 10.314414
v -2.106644 3.034602 10.316776
v -0.922540 3.868012 10.316289
v 0.778938 3.856819 19.082837
v 1.961150 3.103391 19.083318
v 2.905967 1.880225 19.080958
v 2.911405 -0.079600 19.078471
v 1.894738 -1.053390 19.076062
v 0.784376 -1.587162 19.076557
v -0.925053 -1.586118 19.076559
v -2.048042 -1.219939 19.076068
v -2.910557 -0.078556 19.078472
v -2.905429 1.879998 19.080958
v -2.100774 3.020400 19.083315
v -0.919925 3.856593 19.082838
v -1.180984 2.124825 59.832927
v 0.999908 2.125024 59.832921
v -1.184816 -0.551714 59.829535
v 1.003940 -0.552555 59.829527
v -1.180975 1.133596 68.181918
v 0.999917 1.133649 68.181912
v -1.184807 0.422128 68.181010
v 1.003949 0.421905 68.181004
v 1.002078 0.681640 68.181339
v -1.183029 0.681999 68.181340
v -1.183038 0.690456 59.831103
v -1.183051 0.741497 21.242295
v -3.263613 0.752769 21.242310
v -3.263626 0.755427 19.501810
v -2.908177 0.830400 19.079626
v -2.908235 0.843338 10.313083
v -3.263699 0.770414 9.684360
v -3.263699 0.803794 -16.649822
v -3.263703 0.805048 -17.092707
v -1.183084 0.791944 -17.471648
v 1.001604 0.791969 -17.471648
v 3.263643 0.805097 -17.092707
v 3.263699 0.803794 -16.649822
v 3.263699 0.770414 9.684360
v 2.908369 0.843308 10.313083
v 2.908881 0.829946 19.079625
v 3.264343 0.754836 19.501812
v 3.264458 0.752073 21.242309
v 1.002056 0.741138 21.242295
v 1.002069 0.690097 59.831102
v -1.180982 1.964938 62.588682
v 0.999910 1.965114 62.588676
v 1.461877 0.688733 62.587058
v 1.003942 -0.395374 62.585690
v -1.184815 -0.394632 62.585685
v -1.642843 0.689092 62.587059
vt 0.565411 0.495600
vt 0.589464 0.508263
vt 0.594433 0.687090
vt 0.575853 0.687073
vt 0.490213 0.882542
vt 0.594432 0.688060
vt 0.482035 0.875271
vt 0.500173 0.874018
vt 0.521156 0.687066
vt 0.506600 0.687050
vt 0.473590 0.494911
vt 0.491649 0.486232
vt 0.684606 0.386667
vt 0.350409 0.274143
vt 0.741327 0.386733
vt 0.710108 0.386680
vt 0.351779 0.482969
vt 0.374627 0.488247
vt 0.431450 0.687102
vt 0.414660 0.687102
vt 0.560697 0.629432
vt 0.560685 0.687080
vt 0.617932 0.507121
vt 0.396639 0.687119
vt 0.396638 0.688089
vt 0.462990 0.875539
vt 0.487314 0.687053
vt 0.446628 0.493413
vt 0.630324 0.797707
vt 0.408831 0.386881
vt 0.414658 0.688071
vt 0.431447 0.688071
vt 0.471468 0.687082
vt 0.428120 0.482979
vt 0.394207 0.272543
vt 0.439110 0.386801
vt 0.487315 0.688022
vt 0.462665 0.852226
vt 0.442951 0.853588
vt 0.471465 0.688052
vt 0.506600 0.688019
vt 0.481704 0.851958
vt 0.536122 0.688029
vt 0.521158 0.688036
vt 0.510238 0.494986
vt 0.536117 0.687059
vt 0.618183 0.386572
vt 0.593735 0.386540
vt 0.684666 0.798287
vt 0.643308 0.386579
vt 0.660225 0.798023
vt 0.561203 0.386550
vt 0.508669 0.386627
vt 0.534600 0.386623
vt 0.456015 0.687070
vt 0.407412 0.489640
vt 0.462815 0.863046
vt 0.444610 0.688056
vt 0.481859 0.862778
vt 0.500010 0.862639
vt 0.547532 0.629427
vt 0.547517 0.687070
vt 0.350244 0.259995
vt 0.662474 0.386620
vt 0.394114 0.259650
vt 0.646348 0.797876
vt 0.444616 0.687086
vt 0.392491 0.486559
vt 0.705424 0.785993
vt 0.703717 0.830076
vt 0.697710 0.830219
vt 0.699699 0.786411
vt 0.565638 0.493593
vt 0.588082 0.497625
vt 0.543552 0.492047
vt 0.615622 0.497295
vt 0.351905 0.480887
vt 0.375340 0.481873
vt 0.473803 0.484160
vt 0.491865 0.484234
vt 0.513184 0.488151
vt 0.446581 0.483217
vt 0.428156 0.480991
vt 0.406065 0.482487
vt 0.527654 0.489006
vt 0.391586 0.481030
vt 0.594114 0.455978
vt 0.569130 0.463996
vt 0.324055 0.443001
vt 0.351155 0.450586
vt 0.375219 0.444647
vt 0.408138 0.444252
vt 0.489498 0.393085
vt 0.428236 0.451204
vt 0.449175 0.442567
vt 0.476234 0.443806
vt 0.494525 0.454481
vt 0.515994 0.450285
vt 0.530777 0.454829
vt 0.549470 0.455474
vt 0.616592 0.470370
vt 0.351260 0.451985
vt 0.375865 0.450816
vt 0.392600 0.452199
vt 0.406681 0.451185
vt 0.428449 0.452575
vt 0.448187 0.452643
vt 0.475301 0.454404
vt 0.494139 0.455823
vt 0.517232 0.457450
vt 0.531126 0.460287
vt 0.547904 0.461515
vt 0.568971 0.465341
vt 0.590976 0.466062
vt 0.715567 0.705128
vt 0.754449 0.764658
vt 0.659472 0.851036
vt 0.708376 0.873181
vt 0.651008 0.771470
vt 0.698551 0.742910
vt 0.747275 0.839013
vt 0.741134 0.771780
vt 0.672869 0.844227
vt 0.707281 0.854917
vt 0.666557 0.776137
vt 0.700872 0.761097
vt 0.715697 0.785394
vt 0.713796 0.829352
vt 0.443086 0.863441
vt 0.456011 0.688040
vt 0.547523 0.688039
vt 0.499868 0.852785
vt 0.560689 0.688050
vt 0.443244 0.874819
vt 0.489123 0.845584
vt 0.480207 0.836697
vt 0.463537 0.836934
vt 0.454858 0.847540
vt 0.454677 0.883760
vt 0.464362 0.895958
vt 0.481041 0.895726
vt 0.575855 0.688042
vt 0.444583 0.629443
vt 0.431415 0.629452
vt 0.525849 0.494392
vt 0.543520 0.498514
vt 0.613733 0.688048
vt 0.613729 0.687078
vt 0.414623 0.629461
vt 0.575861 0.629434
vt 0.455988 0.629435
vt 0.536127 0.629423
vt 0.487298 0.629419
vt 0.471440 0.629429
vt 0.613729 0.629443
vt 0.396602 0.629477
vt 0.506598 0.629417
vt 0.594440 0.629442
vt 0.521163 0.629421
vt 0.393612 0.446906
vt 0.508675 0.393026
vt 0.662468 0.393019
vt 0.684598 0.393066
vt 0.329262 0.452334
vt 0.408851 0.393280
vt 0.620461 0.461215
vt 0.329984 0.481200
vt 0.710096 0.393079
vt 0.643304 0.392978
vt 0.618178 0.392971
vt 0.593728 0.392940
vt 0.561215 0.392950
vt 0.534609 0.393022
vt 0.467353 0.393152
vt 0.439129 0.393200
vt 0.741313 0.393132
vt 0.324925 0.490735
vt 0.489488 0.386686
vt 0.467338 0.386753
vt 0.329723 0.260316
vt 0.329893 0.273198
vt 0.773616 0.393155
vt 0.370911 0.297043
vt 0.773612 0.386755
vt 0.394034 0.248484
vt 0.329577 0.249160
vt 0.380436 0.241932
vt 0.370300 0.230225
vt 0.351365 0.230435
vt 0.341502 0.240694
vt 0.381484 0.282941
vt 0.352119 0.297232
vt 0.341436 0.282531
vt 0.647360 0.704386
vt 0.739921 0.705392
vt 0.631337 0.704216
vt 0.371797 0.259770
vt 0.738909 0.798882
vt 0.371921 0.273924
vt 0.698537 0.798441
vt 0.714555 0.798619
vt 0.699550 0.704951
vt 0.762796 0.843988
vt 0.661237 0.704532
vt 0.685678 0.704797
vt 0.371690 0.247513
vt 0.350101 0.247743
vn -0.740514 0.671982 0.008890
vn -0.445755 0.895017 0.015711
vn -0.448583 0.893740 0.001158
vn -0.740881 0.671636 0.000880
vn -0.215095 0.195972 -0.956728
vn -0.028605 0.165800 -0.985744
vn -0.078204 0.094752 -0.992424
vn -0.188008 0.045715 -0.981103
vn -0.643989 -0.765034 -0.001003
vn -0.333731 -0.942668 -0.001229
vn -0.331132 -0.943471 0.014615
vn -0.643576 -0.765338 0.008231
vn 0.000148 -0.001347 0.999999
vn 0.000157 -0.001222 0.999999
vn 0.000087 -0.001081 0.999999
vn 0.000671 -0.001620 0.999999
vn 0.716997 0.697020 0.008844
vn 0.875588 0.482994 0.007945
vn 0.875278 0.483620 0.000631
vn 0.717378 0.696683 0.000909
vn -0.890939 0.454051 0.008047
vn -0.890635 0.454718 0.000597
vn 0.423566 0.905724 0.015988
vn 0.426415 0.904527 0.001170
vn 0.030288 0.165797 -0.985695
vn 0.075125 0.093801 -0.992753
vn 0.380487 -0.924786 -0.001210
vn 0.377608 -0.925856 0.014272
vn -0.000136 -0.001216 0.999999
vn -0.000083 -0.001085 0.999999
vn 0.195871 0.191205 -0.961808
vn 0.172741 0.044507 -0.983961
vn 0.617851 -0.786294 -0.001038
vn 0.617433 -0.786585 0.007737
vn -0.000125 -0.001333 0.999999
vn -0.000564 -0.001559 0.999999
vn 0.031835 -0.221298 -0.974687
vn 0.078228 -0.116444 -0.990112
vn 0.173285 -0.034675 -0.984261
vn 0.222639 -0.282160 -0.933176
vn -0.033850 -0.216900 -0.975607
vn -0.079243 -0.114304 -0.990280
vn -0.185559 -0.044764 -0.981613
vn -0.208936 -0.247010 -0.946220
vn -0.850289 -0.526268 0.007134
vn -0.850244 -0.526389 -0.000691
vn -0.000557 -0.001930 0.999998
vn -0.000089 -0.001373 0.999999
vn -0.000130 -0.001422 0.999999
vn -0.000101 -0.001387 0.999999
vn 0.000155 -0.001465 0.999999
vn 0.000101 -0.001397 0.999999
vn 0.000090 -0.001383 0.999999
vn 0.000733 -0.002198 0.999997
vn 0.794946 -0.606679 -0.000801
vn 0.795113 -0.606426 0.006637
vn 0.082995 0.001250 -0.996549
vn 0.165212 0.001224 -0.986257
vn -0.086417 0.001250 -0.996258
vn -0.179173 0.001221 -0.983817
vn -0.999930 -0.000013 0.011815
vn -1.000000 -0.000002 0.000001
vn 0.000000 -0.001269 0.999999
vn 0.000000 -0.001269 0.999999
vn -0.000000 -0.001269 0.999999
vn -0.000000 -0.001269 0.999999
vn 1.000000 -0.000002 -0.000001
vn 0.999930 -0.000013 0.011810
vn -0.813232 0.581935 0.002345
vn -0.740984 0.671517 0.002562
vn -0.638802 0.769366 0.002783
vn 0.000007 0.999997 0.002413
vn 0.000007 0.999997 0.002413
vn 0.717478 0.696577 0.002442
vn 0.792291 0.610139 0.002229
vn 0.626497 0.779419 0.002636
vn 0.617525 -0.786543 -0.003510
vn 0.439203 -0.898380 -0.003736
vn 0.765538 -0.643383 -0.003138
vn 0.000029 -0.999995 -0.003097
vn 0.000029 -0.999995 -0.003097
vn -0.643831 -0.765161 -0.003008
vn -0.716233 -0.697856 -0.002844
vn -0.567664 -0.823254 -0.003138
vn 1.000000 -0.000109 -0.000406
vn 1.000000 -0.000109 -0.000082
vn -1.000000 -0.000104 0.000050
vn -1.000000 -0.000103 -0.000256
vn 0.000001 -0.001286 0.999999
vn 0.000001 -0.001286 0.999999
vn 0.000001 -0.001295 0.999999
vn 0.000001 -0.001295 0.999999
vn -0.706654 0.706986 0.028456
vn -0.590284 0.806119 0.041681
vn -0.811786 0.583465 0.023922
vn -0.000066 0.996534 0.083182
vn -0.000066 0.996625 0.082088
vn 0.681927 0.730882 0.028048
vn 0.786107 0.617616 0.024209
vn 0.550867 0.833561 0.041488
vn -0.330963 -0.942935 0.036573
vn -0.605963 -0.794963 0.029014
vn -0.790224 -0.612402 0.022588
vn -0.000302 -0.996895 0.078748
vn -0.000302 -0.996807 0.079844
vn 0.579559 -0.814478 0.027158
vn 0.453520 -0.890445 0.037773
vn 0.681357 -0.731550 0.024233
vn -0.998332 0.001187 0.057721
vn -0.999099 0.001243 0.042427
vn 0.999102 0.001321 0.042339
vn 0.998339 0.001263 0.057601
vn -0.804874 0.590278 -0.061239
vn -0.734451 0.671368 -0.099231
vn -0.741125 0.671366 0.001380
vn -0.814815 0.579719 0.001259
vn -0.000159 0.965256 -0.261306
vn -0.000159 0.966199 -0.257797
vn -0.000168 0.999999 0.001297
vn -0.000168 0.999999 0.001297
vn 0.711017 0.696260 -0.098370
vn 0.782982 0.618909 -0.062380
vn 0.793780 0.608203 0.001199
vn 0.717624 0.696430 0.001317
vn 0.636596 0.768499 -0.064446
vn 0.624991 0.780630 0.001425
vn 0.995721 0.002934 -0.092358
vn 0.988948 0.002975 -0.148236
vn 0.999996 0.002847 -0.000038
vn 0.999996 0.002847 -0.000211
vn 0.610707 -0.783851 -0.112310
vn 0.460541 -0.884142 -0.078708
vn 0.443000 -0.896519 -0.002012
vn 0.617846 -0.786297 -0.001891
vn 0.748575 -0.659127 -0.072019
vn 0.762880 -0.646538 -0.001696
vn -0.000726 -0.965608 -0.260000
vn -0.000725 -0.964708 -0.263320
vn -0.000770 -0.999998 -0.001668
vn -0.000770 -0.999998 -0.001668
vn -0.636344 -0.762397 -0.117546
vn -0.693947 -0.714939 -0.085435
vn -0.713924 -0.700221 -0.001533
vn -0.643989 -0.765033 -0.001618
vn -0.588647 -0.803299 -0.090582
vn -0.570315 -0.821425 -0.001686
vn -0.988955 0.002818 -0.148191
vn -0.995720 0.002776 -0.092383
vn -0.999996 0.002687 -0.000130
vn -0.999996 0.002686 0.000033
vn -0.649801 0.757272 -0.065559
vn -0.636820 0.771011 0.001502
vn 0.546510 0.836497 -0.040000
vn 0.681351 0.731496 -0.025959
vn 0.787799 0.615525 -0.022391
vn 0.999050 0.001597 -0.043542
vn 0.998157 0.001642 -0.060666
vn 0.684189 -0.728749 -0.028449
vn 0.579073 -0.814656 -0.031767
vn 0.447494 -0.893256 -0.042928
vn -0.000343 -0.996416 -0.084585
vn -0.000343 -0.996325 -0.085658
vn -0.324642 -0.944943 -0.041118
vn -0.605519 -0.795140 -0.033150
vn -0.792345 -0.609526 -0.025834
vn -0.998164 0.001553 -0.060548
vn -0.999054 0.001510 -0.043467
vn -0.813520 0.581121 -0.021974
vn -0.706097 0.707628 -0.026240
vn -0.586227 0.809154 -0.040098
vn -0.000075 0.996600 -0.082392
vn -0.000075 0.996692 -0.081272
vn -0.000091 0.999999 0.001323
vn -0.000091 0.999999 0.001323
vn -0.000091 0.999987 0.005102
vn -0.000091 0.999987 0.005102
vn -0.999999 0.001432 0.000002
vn -0.999999 0.001432 0.000002
vn -0.999951 -0.008989 -0.004107
vn -0.999987 0.001430 -0.004919
vn -0.000385 -0.999999 -0.001323
vn -0.000385 -0.999999 -0.001323
vn -0.000383 -0.999997 0.002566
vn -0.000383 -0.999997 0.002566
vn 0.999999 0.001506 0.000002
vn 0.999999 0.001506 0.000002
vn 0.999987 0.001504 -0.004919
vn 0.999952 -0.008909 -0.004107
vn -0.000063 0.993025 0.117906
vn -0.000063 0.993025 0.117904
vn -0.969171 -0.245584 -0.019929
vn -0.999989 0.004156 0.002358
vn -0.000265 -0.993266 0.115855
vn -0.000265 -0.993265 0.115862
vn 0.999988 0.004257 0.002356
vn 0.969214 -0.245408 -0.019951
vn 0.000001 -0.001282 0.999999
vn 0.000001 -0.001282 0.999999
vn -0.999936 0.010510 -0.004189
vn -0.978053 0.207458 -0.019311
vn -0.999999 0.001432 0.000002
vn -0.993692 0.002791 -0.112114
vn -0.999996 0.002686 0.000176
vn -0.998503 0.001538 -0.054675
vn -0.998592 0.001205 0.053037
vn -1.000000 -0.000104 0.000313
vn 1.000000 -0.000110 0.000196
vn 0.998596 0.001281 0.052950
vn 0.998499 0.001627 -0.054748
vn 0.993687 0.002949 -0.112152
vn 0.999996 0.002846 0.000113
vn 0.999999 0.001506 0.000002
vn 0.999935 0.010580 -0.004190
vn 0.978054 0.207455 -0.019311
vn -0.000051 0.989132 0.147029
vn -0.000051 0.989132 0.147029
vn 0.998007 0.002944 0.063038
vn 0.964120 0.258822 0.059024
vn 0.945104 -0.320821 0.062064
vn -0.000218 -0.989507 0.144486
vn -0.000218 -0.989507 0.144486
vn -0.945046 -0.320992 0.062062
vn -0.998007 0.002794 0.063040
vn -0.964114 0.258842 0.059025
s 1
g pCube1
usemtl lambert2SG
f 1/150/1 9/158/2 10/3/3 3/4/4
s 2
f 25/5/5 26/141/6 27/7/7 28/8/8
s 1
f 5/9/9 11/10/10 12/157/11 7/159/12
s 4
f 41/181/13 42/14/14 43/192/15 44/193/16
s 1
f 2/149/17 24/144/18 21/19/19 4/20/20
f 23/21/21 1/150/1 3/4/4 22/22/22
f 9/158/2 13/155/23 14/148/24 10/3/3
s 2
f 27/7/7 26/141/6 29/140/25 30/26/26
s 1
f 12/157/11 11/10/10 15/27/27 16/153/28
s 4
f 43/192/15 42/14/14 45/199/29 46/183/30
s 1
f 13/156/23 2/149/17 4/20/20 14/24/24
s 2
f 30/26/26 29/140/25 31/139/31 32/134/32
s 1
f 16/153/28 15/27/27 6/33/33 8/154/34
s 4
f 46/183/30 45/199/29 47/35/35 48/191/36
s 2
f 34/137/37 33/38/38 35/39/39 36/138/40
f 38/136/41 37/42/42 33/38/38 34/137/37
f 39/132/43 37/42/42 38/136/41 40/135/44
s 1
f 7/159/12 19/152/45 18/46/46 5/9/9
s 4
f 49/190/47 50/189/48 51/207/49 52/186/50
f 53/206/51 51/207/49 50/189/48 54/188/52
f 55/185/53 53/206/51 54/188/52 56/187/54
s 1
f 17/55/55 20/151/56 8/154/34 6/33/33
s 2
f 33/38/38 113/57/57 114/129/58 35/39/39
f 37/42/42 112/59/59 113/57/57 33/38/38
f 111/60/60 112/59/59 37/42/42 39/132/43
s 1
f 19/152/45 109/61/61 110/62/62 18/46/46
s 4
f 52/186/50 51/207/49 104/63/63 105/180/64
f 120/65/65 121/197/66 53/206/51 55/185/53
s 1
f 115/67/67 116/143/68 20/151/56 17/55/55
f 3/4/4 10/3/3 26/6/69 25/142/70
f 22/22/22 3/4/4 25/142/70 28/133/71
f 10/3/3 14/148/24 29/147/72 26/6/73
f 14/24/24 4/20/20 31/31/74 29/25/75
f 4/20/20 21/19/19 32/32/76 31/31/74
f 17/55/55 6/33/33 36/40/77 35/130/78
f 6/33/33 15/27/27 34/37/79 36/40/77
f 15/27/27 11/10/10 38/41/80 34/37/81
f 11/10/10 5/9/9 40/44/82 38/41/83
f 5/9/9 18/46/46 39/43/84 40/44/82
f 115/67/67 17/55/55 35/130/85 114/58/86
f 18/46/46 110/62/62 111/131/87 39/43/88
s 11
f 101/69/89 102/70/90 99/71/91 100/72/92
s 1
f 9/2/2 1/1/1 79/73/93 80/74/94
f 1/1/1 23/146/21 78/75/95 79/73/93
f 13/23/23 9/2/2 80/74/96 69/76/97
f 24/18/18 2/17/17 70/77/98 71/78/99
f 2/17/17 13/177/23 69/167/100 70/77/98
f 7/12/12 12/11/11 75/79/101 76/80/102
f 19/45/45 7/12/12 76/80/102 77/81/103
f 12/11/11 16/28/28 74/82/104 75/79/105
f 16/28/28 8/34/34 73/83/106 74/82/107
f 8/34/34 20/56/56 72/84/108 73/83/106
f 109/145/61 19/45/45 77/81/109 108/85/110
f 20/56/56 116/68/68 117/86/111 72/84/112
f 58/176/113 57/168/114 44/16/115 43/15/116
f 59/182/117 58/176/118 43/15/119 46/184/120
f 60/175/121 59/165/122 46/30/123 48/36/124
f 61/174/125 60/175/121 48/36/124 47/179/126
f 62/161/127 119/93/128 120/178/129 55/53/130
f 63/173/131 62/161/132 55/53/133 56/54/134
f 64/172/135 63/173/131 56/54/134 54/52/136
f 65/171/137 64/172/138 54/52/139 50/48/140
f 66/170/141 65/171/142 50/48/143 49/47/144
f 67/169/145 66/170/141 49/47/144 52/50/146
f 106/162/147 67/169/148 52/50/149 105/64/150
f 57/168/114 68/163/151 41/13/152 44/16/115
f 70/77/98 69/167/100 81/164/153 82/102/154
f 71/78/99 70/77/98 82/102/154 83/103/155
f 72/84/112 117/86/111 118/104/156 84/105/157
f 73/83/106 72/84/108 84/105/158 85/106/159
f 74/82/107 73/83/106 85/106/159 86/107/160
f 75/79/105 74/82/104 86/107/161 87/108/162
f 76/80/102 75/79/101 87/108/163 88/109/164
f 77/81/103 76/80/102 88/109/164 89/110/165
f 108/85/110 77/81/109 89/110/166 107/111/167
f 79/73/93 78/75/95 90/112/168 91/113/169
f 80/74/94 79/73/93 91/113/169 92/114/170
f 69/76/97 80/74/96 92/114/171 81/101/172
f 82/102/154 81/164/153 59/89/122 60/90/121
f 83/103/155 82/102/154 60/90/121 61/91/125
f 84/105/157 118/104/156 119/160/128 62/92/127
f 85/106/159 84/105/158 62/92/132 63/94/131
f 86/107/160 85/106/159 63/94/131 64/95/135
f 87/108/162 86/107/161 64/95/138 65/96/137
f 88/109/164 87/108/163 65/96/142 66/97/141
f 89/110/165 88/109/164 66/97/141 67/98/145
f 107/111/167 89/110/166 67/98/148 106/99/147
f 91/113/169 90/112/168 68/100/151 57/88/114
f 92/114/170 91/113/169 57/88/114 58/87/113
f 81/101/172 92/114/171 58/87/118 59/166/117
s 20
f 45/198/173 42/201/174 93/115/175 94/195/176
s 21
f 104/200/177 51/49/178 95/205/179 103/202/180
s 22
f 51/49/181 53/51/182 96/204/183 95/205/184
s 23
f 53/51/185 121/66/186 122/194/187 96/204/188
s 20
f 94/116/176 93/203/175 123/121/189 124/122/190
s 21
f 103/118/180 95/117/179 127/123/191 128/124/192
s 22
f 95/117/184 96/119/183 126/125/193 127/123/194
s 23
f 96/119/188 122/120/187 125/126/195 126/125/196
s 11
f 98/127/197 97/128/198 102/70/90 101/69/89
s 21
f 93/203/199 103/118/180 128/124/192 123/121/200
f 42/201/201 104/200/177 103/202/180 93/115/199
s 4
f 105/180/64 104/63/63 42/14/14 41/181/13
s 1
f 68/163/202 106/162/147 105/64/150 41/13/203
f 90/112/204 107/111/167 106/99/147 68/100/202
f 78/75/205 108/85/110 107/111/167 90/112/204
f 23/146/21 109/145/61 108/85/110 78/75/205
f 110/62/62 109/61/61 23/21/21 22/22/22
f 111/131/87 110/62/62 22/22/22 28/133/206
s 2
f 28/8/8 27/7/7 112/59/59 111/60/60
f 113/57/57 112/59/59 27/7/7 30/26/26
f 114/129/58 113/57/57 30/26/26 32/134/32
s 1
f 21/19/19 115/67/67 114/58/86 32/32/207
f 21/19/19 24/144/18 116/143/68 115/67/67
f 117/86/111 116/68/68 24/18/18 71/78/208
f 118/104/156 117/86/111 71/78/208 83/103/209
f 119/160/128 118/104/156 83/103/209 61/91/210
f 120/178/129 119/93/128 61/174/210 47/179/211
s 4
f 47/35/35 45/199/29 121/197/66 120/65/65
s 23
f 122/194/187 121/66/186 45/29/212 94/196/213
f 125/126/195 122/120/187 94/116/213 124/122/214
s 20
f 124/122/190 123/121/189 97/128/215 98/127/216
s 23
f 101/69/217 125/126/195 124/122/214 98/127/218
f 126/125/196 125/126/195 101/69/217 100/72/219
s 22
f 127/123/194 126/125/193 100/72/220 99/71/221
s 21
f 128/124/192 127/123/191 99/71/222 102/70/223
f 123/121/200 128/124/192 102/70/223 97/128/224
